<svg xmlns="http://www.w3.org/2000/svg" viewBox="0 0 104.58 37.22"><g id="Calque_2" data-name="Calque 2"><g id="Calque_1-2" data-name="Calque 1"><path d="M31.31,19.6,37,14.77q6.55-5.91,10.8-9a34.64,34.64,0,0,1,7.57-4.43A18.64,18.64,0,0,1,62.25,0a17.84,17.84,0,0,1,7.57,1.77,30.31,30.31,0,0,1,8.49,6.61A13.06,13.06,0,0,1,86.1,5.75,18.42,18.42,0,0,1,94.88,8a19.05,19.05,0,0,1,7,6.34,15.63,15.63,0,0,1,2.72,8.89,23.44,23.44,0,0,1-.76,5c-.5,2.11-1.45,3.16-2.84,3.16a6,6,0,0,1-3-.85,2.69,2.69,0,0,1-1.48-2.42,37.81,37.81,0,0,1,1.37-4.7,27.6,27.6,0,0,0,1.37-5,8.52,8.52,0,0,0-1.1-4.41,7.76,7.76,0,0,0-2.9-2.9,7.2,7.2,0,0,0-3.57-1,12.22,12.22,0,0,0-6.74,2.52q-3.67,2.52-12.11,9.63-9.3,8.18-15.09,11.6a21.55,21.55,0,0,1-11.28,3.32,16.92,16.92,0,0,1-9-2.09,41.54,41.54,0,0,1-7.09-5.75A19.3,19.3,0,0,1,19.55,33a16.08,16.08,0,0,1-9.34-3.25,25.79,25.79,0,0,1-7.42-7.92A17,17,0,0,1,0,13.32,18.09,18.09,0,0,1,1.77,5.53C3,3,4.05,1.77,5.05,1.77a5.44,5.44,0,0,1,3,1.45A4.11,4.11,0,0,1,9.88,6.39a4.88,4.88,0,0,1-1.23,3,36.66,36.66,0,0,0-3,5,8.33,8.33,0,0,0-.73,3.46,8.55,8.55,0,0,0,1.51,5,9.51,9.51,0,0,0,4,3.31,13,13,0,0,0,5.42,1.13,17.05,17.05,0,0,0,6.77-1.56A34.9,34.9,0,0,0,31.31,19.6ZM47,15.83l-4.66,3.92c-.33.32-1.14,1-2.41,2.06s-2.8,2.3-4.59,3.73-2.77,2.24-3,2.43a20.8,20.8,0,0,0,3.91,3,11.17,11.17,0,0,0,5.19.91,19.2,19.2,0,0,0,7.73-1.58,41.27,41.27,0,0,0,8-4.84q4.36-3.26,12.2-9.88a72.5,72.5,0,0,1,7-5.74A28,28,0,0,0,71.76,6a10.37,10.37,0,0,0-5.67-1.46,12.9,12.9,0,0,0-5.56,1.33,34.35,34.35,0,0,0-6.18,3.91Q51,12.33,47,15.83Z"/></g></g></svg>